# xmcd
#
# Track frame offsets: 
#        150
#        19713
#        36867
#        56954
#        80205
#        97620
#        119479
#        138840
#        161053
#        178583
#        197777
#        218344
#        236094
#        257345
#        273061
#
# Disc length: 3881 seconds
#
# Revision: 1
# Processed by: cddbd v1.5.2PL0 Copyright (c) Steve Scherf et al.
# Submitted via: ExactAudioCopyFreeDBPlugin 1.0
#
DISCID=c70f270f
DTITLE=群星 - 正版CD 燃烧寂寞·发烧人声
DYEAR=2010
DGENRE=Acid
TTITLE0=离别的秋天
TTITLE1=绝情人
TTITLE2=落红泪
TTITLE3=趁早
TTITLE4=一笔勾销
TTITLE5=下辈子不做女人
TTITLE6=那年的情书
TTITLE7=忘记你我做不到
TTITLE8=车站
TTITLE9=新浪人情歌
TTITLE10=寂寞沙洲冷
TTITLE11=还有我
TTITLE12=原来的我
TTITLE13=再度重相逢
TTITLE14=香烟爱上火柴
EXTD=
EXTT0=
EXTT1=
EXTT2=
EXTT3=
EXTT4=
EXTT5=
EXTT6=
EXTT7=
EXTT8=
EXTT9=
EXTT10=
EXTT11=
EXTT12=
EXTT13=
EXTT14=
PLAYORDER=
